<?xml version="1.0" encoding="UTF-8" standalone="no"?>
<!-- Created with Inkscape (http://www.inkscape.org/) -->

<svg
   width="14.427297mm"
   height="3.2416949mm"
   viewBox="0 0 14.427297 3.2416949"
   version="1.1"
   id="svg1"
   xmlns="http://www.w3.org/2000/svg"
   xmlns:svg="http://www.w3.org/2000/svg">
  <defs
     id="defs1" />
  <g
     id="layer1"
     transform="translate(-62.199413,-72.527954)">
    <g
       id="text1"
       style="font-size:3.175px;font-family:Gluten;-inkscape-font-specification:Gluten;stroke-width:0.264583"
       aria-label="workflou_">
      <path
         style="font-family:'Leckerli One';-inkscape-font-specification:'Leckerli One'"
         d="m 62.688464,73.502681 q 0,0.212725 -0.0762,0.4826 0.0063,0.1016 0.0063,0.19685 0.0063,0.2032 0.0508,0.2794 0.03175,0.04128 0.08255,0.04128 0.09842,0 0.244475,-0.1397 -0.111125,-0.263525 -0.111125,-0.47625 0,-0.434975 0.409575,-0.434975 0.1397,0 0.231775,0.08255 0.09525,0.07937 0.09525,0.200025 0,0.254 -0.282575,0.6096 0.117475,0.1397 0.1905,0.161925 0.104775,0 0.314325,-0.38735 -0.0381,-0.142875 -0.0381,-0.2667 0,-0.225425 0.06985,-0.3302 0.08572,-0.13335 0.282575,-0.13335 0.200025,0 0.225425,0.161925 0.0063,0.04762 0.0063,0.1016 0,0.2032 -0.225425,0.561975 0.07937,0.1143 0.149225,0.136525 0.14605,0 0.24765,-0.09843 0.0381,-0.03493 0.0635,-0.0635 0.02858,-0.03175 0.05715,-0.03175 0.04445,0 0.04445,0.104775 0,0.193675 -0.1143,0.28575 -0.1143,0.09207 -0.29845,0.09207 -0.18415,0 -0.320675,-0.1778 -0.1651,0.2159 -0.27305,0.301625 -0.19685,0.161925 -0.307975,0.161925 -0.05397,0 -0.1397,-0.0889 -0.08255,-0.09207 -0.1651,-0.238125 -0.1524,0.142875 -0.301625,0.23495 -0.149225,0.09208 -0.250825,0.09208 -0.18415,0 -0.31115,-0.8001 -0.04445,-0.27305 -0.04445,-0.37465 0.0063,-0.20955 0.05715,-0.2921 0.06985,-0.1016 0.27305,-0.1016 0.0762,0 0.117475,0.04763 0.04128,0.04445 0.04128,0.09842 z m 0.542925,0.5715 q 0.104775,-0.161925 0.104775,-0.257175 0,-0.09843 -0.06667,-0.09843 -0.04445,0 -0.05715,0.0508 -0.0095,0.04763 -0.0095,0.127 0,0.07937 0.02858,0.1778 z m 2.635248,0.555625 q -0.250825,0.295275 -0.60325,0.295275 -0.34925,0 -0.523875,-0.1778 -0.174625,-0.180975 -0.17145,-0.447675 -0.0032,-0.377825 0.238125,-0.650875 0.2413,-0.27305 0.631825,-0.27305 0.1778,0 0.28575,0.04445 0.187325,0.0762 0.187325,0.142875 0,0.0508 -0.263525,0.05397 -0.26035,0 -0.43815,0.180975 -0.174625,0.1778 -0.174625,0.45085 0,0.142875 0.08255,0.2413 0.08572,0.09525 0.238125,0.09525 0.155575,0 0.257175,-0.0635 -0.225425,-0.1524 -0.225425,-0.441325 -0.0032,-0.1524 0.10795,-0.276225 0.1143,-0.127 0.288925,-0.127 0.1778,-0.0032 0.254,0.09525 0.0762,0.09843 0.0762,0.254 0,0.1524 -0.07303,0.32385 h 0.01905 q 0.1397,-0.0032 0.2413,-0.09843 0.0381,-0.0381 0.0635,-0.06668 0.02858,-0.02858 0.05715,-0.02858 0.04445,0 0.04445,0.104775 0,0.193675 -0.1143,0.2921 -0.1143,0.09525 -0.254,0.09525 -0.136525,0 -0.231775,-0.01905 z m -0.02858,-0.3683 q 0.05398,-0.1143 0.05398,-0.22225 0,-0.10795 -0.06985,-0.10795 -0.02858,0 -0.04762,0.04127 -0.01905,0.04127 -0.01905,0.07937 0,0.127 0.08255,0.20955 z m 0.933447,0.104775 0.01905,0.38735 q 0,0.0762 -0.07937,0.136525 -0.07937,0.06032 -0.2159,0.06032 -0.07937,0 -0.111125,-0.08255 -0.02858,-0.08255 -0.02858,-0.2413 0,-0.333375 0.03175,-0.5207 0.03493,-0.1905 0.13335,-0.384175 -0.14605,-0.1397 -0.14605,-0.2413 0,-0.212725 0.2286,-0.212725 0.117475,0 0.206375,0.123825 0.0635,0.08573 0.09208,0.200025 0.04445,0.01587 0.111125,0.01587 0.09207,0 0.212725,-0.06033 l 0.08255,-0.04127 q 0.0381,-0.01905 0.06668,-0.01905 0.09208,0 0.18415,0.269875 -0.02858,0.123825 -0.0635,0.238125 -0.03175,0.1143 -0.0762,0.276225 -0.04445,0.161925 -0.04762,0.219075 0,0.05398 0.03493,0.05398 0.04762,0 0.117475,-0.06033 0.06985,-0.06033 0.1397,-0.130175 0.06985,-0.07303 0.127,-0.13335 0.06033,-0.06032 0.08255,-0.06032 0.04445,0 0.04445,0.10795 0,0.219075 -0.193675,0.4318 -0.1905,0.212725 -0.43815,0.20955 -0.14605,0 -0.219075,-0.117475 -0.07303,-0.117475 -0.0762,-0.28575 0,-0.333375 0.149225,-0.631825 -0.06985,0.02858 -0.15875,0.02858 -0.08572,0 -0.123825,-0.0063 -0.02858,0.12065 -0.05715,0.244475 -0.02858,0.12065 -0.02858,0.225425 z m 1.914528,-0.161925 q 0.08572,0.339725 0.288925,0.339725 0.09842,0 0.1778,-0.06033 0.07937,-0.06033 0.142875,-0.130175 0.0635,-0.07303 0.111125,-0.13335 0.04762,-0.06032 0.0889,-0.06032 0.04127,0 0.04127,0.10795 0,0.225425 -0.20955,0.434975 -0.20955,0.20955 -0.4699,0.206375 -0.257175,0 -0.460375,-0.454025 -0.05715,-0.127 -0.10795,-0.257175 l -0.02223,0.434975 q 0,0.06033 -0.0063,0.12065 -0.0063,0.05715 -0.05397,0.09525 -0.123825,0.09842 -0.250825,0.09842 -0.149225,0 -0.149225,-0.307975 0,-0.4445 0.104775,-0.930275 0.104775,-0.485775 0.2032,-0.73025 0.1016,-0.24765 0.155575,-0.3302 0.05715,-0.08255 0.0889,-0.1016 0.03175,-0.01905 0.06985,-0.01905 0.04127,0 0.08573,0.04127 0.04445,0.0381 0.09525,0.12065 0.0508,0.07937 0.0508,0.15875 0.0032,0.0762 -0.0254,0.1524 -0.0254,0.07303 -0.06985,0.14605 -0.04445,0.06985 -0.09843,0.14605 -0.05397,0.07303 -0.10795,0.15875 l -0.03175,0.2667 q 0.111125,-0.231775 0.327025,-0.31115 0.0762,-0.02858 0.1778,-0.02858 0.2032,0 0.31115,0.09843 0.10795,0.09525 0.10795,0.282575 0,0.187325 -0.187325,0.3175 -0.187325,0.130175 -0.377825,0.127 z m 0.12065,-0.371475 q 0,-0.1143 -0.130175,-0.1143 -0.130175,0 -0.282575,0.250825 -0.04445,0.07302 -0.0762,0.149225 0.3302,-0.01905 0.45085,-0.1778 0.0381,-0.0508 0.0381,-0.10795 z m 0.631825,-0.549275 q 0,-0.05715 0.04127,-0.05715 0.0635,0 0.130175,0.02858 0.06668,0.0254 0.142875,0.04127 0.254,-0.542925 0.5842,-0.708025 0.1143,-0.05715 0.2286,-0.05715 0.212725,0.0032 0.28575,0.1016 0.0762,0.09842 0.0762,0.254 -0.0032,0.295275 -0.254,0.466725 -0.250825,0.168275 -0.612775,0.187325 -0.09207,0.244475 -0.142875,0.5207 0.123825,-0.04762 0.3175,-0.04762 0.0254,0.200025 0.0889,0.28575 0.0635,0.08572 0.1397,0.08572 0.07937,0 0.130175,-0.0381 0.05397,-0.0381 0.09207,-0.08572 0.04128,-0.04762 0.06668,-0.08572 0.02858,-0.0381 0.05398,-0.0381 0.05397,0 0.05397,0.09525 0,0.1905 -0.09525,0.3175 -0.09525,0.123825 -0.2921,0.123825 -0.307975,0 -0.43815,-0.161925 0.06985,0.6985 0.06985,0.83185 0,0.238125 -0.149225,0.339725 -0.123825,0.08573 -0.3175,0.08573 -0.1905,0 -0.2667,-0.0889 -0.07303,-0.08572 -0.07303,-0.206375 0,-0.765175 0.219075,-1.539875 0.06985,-0.24765 0.15875,-0.46355 -0.238125,-0.104775 -0.238125,-0.187325 z m 0.3175,2.24155 q 0.0381,0 0.06985,-0.06032 0.03175,-0.05715 0.03175,-0.123825 0,-0.219075 -0.06033,-0.6731 -0.07937,0.327025 -0.10795,0.650875 -0.0063,0.06985 -0.0063,0.08572 0,0.12065 0.07303,0.12065 z m 0.784225,-2.6797 q -0.0635,0 -0.174625,0.12065 -0.10795,0.12065 -0.22225,0.3683 0.231775,-0.1016 0.3048,-0.155575 0.149225,-0.104775 0.149225,-0.250825 0,-0.08255 -0.05715,-0.08255 z m 0.86995,2.06375 q -0.454025,0.0032 -0.619125,-0.339725 -0.05715,-0.12065 -0.05715,-0.301625 0,-0.18415 0.03175,-0.390525 0.0635,-0.41275 0.244475,-0.762 0.09207,-0.1778 0.206375,-0.3048 0.250825,-0.2794 0.5588,-0.276225 0.136525,0 0.212725,0.0762 0.07937,0.07303 0.07937,0.212725 0,0.1397 -0.08255,0.282575 -0.08255,0.1397 -0.212725,0.2921 -0.127,0.149225 -0.282575,0.314325 -0.155575,0.1651 -0.3048,0.358775 v 0.127 q 0,0.1778 0.0762,0.26035 0.0762,0.08255 0.1778,0.08255 0.27305,0 0.4826,-0.269875 0.08572,-0.111125 0.130175,-0.111125 0.04445,0 0.04445,0.10795 0,0.10795 -0.06032,0.22225 -0.05715,0.111125 -0.1524,0.206375 -0.09525,0.09207 -0.219075,0.1524 -0.123825,0.06032 -0.254,0.06032 z m 0.17145,-1.704975 q 0.06668,-0.08255 0.104775,-0.149225 0.0381,-0.06668 0.0381,-0.136525 0,-0.07303 -0.0508,-0.07303 -0.111125,0 -0.24765,0.2286 -0.13335,0.2286 -0.200025,0.600075 0.10795,-0.1651 0.19685,-0.276225 0.09207,-0.111125 0.15875,-0.193675 z m 1.609722,1.425575 q -0.250825,0.295275 -0.60325,0.295275 -0.34925,0 -0.523875,-0.1778 -0.174625,-0.180975 -0.17145,-0.447675 -0.0032,-0.377825 0.238125,-0.650875 0.2413,-0.27305 0.631825,-0.27305 0.1778,0 0.28575,0.04445 0.187325,0.0762 0.187325,0.142875 0,0.0508 -0.263525,0.05397 -0.26035,0 -0.43815,0.180975 -0.174625,0.1778 -0.174625,0.45085 0,0.142875 0.08255,0.2413 0.08572,0.09525 0.238125,0.09525 0.155575,0 0.257175,-0.0635 -0.225425,-0.1524 -0.225425,-0.441325 -0.0032,-0.1524 0.10795,-0.276225 0.1143,-0.127 0.288925,-0.127 0.1778,-0.0032 0.254,0.09525 0.0762,0.09843 0.0762,0.254 0,0.1524 -0.07303,0.32385 h 0.01905 q 0.1397,-0.0032 0.2413,-0.09843 0.0381,-0.0381 0.0635,-0.06668 0.02857,-0.02858 0.05715,-0.02858 0.04445,0 0.04445,0.104775 0,0.193675 -0.1143,0.2921 -0.1143,0.09525 -0.254,0.09525 -0.136525,0 -0.231775,-0.01905 z m -0.02858,-0.3683 q 0.05397,-0.1143 0.05397,-0.22225 0,-0.10795 -0.06985,-0.10795 -0.02857,0 -0.04762,0.04127 -0.01905,0.04127 -0.01905,0.07937 0,0.127 0.08255,0.20955 z m 1.457323,-0.701675 q 0,-0.212725 0.3302,-0.212725 0.08255,0 0.1016,0.05398 0.02223,0.05397 0.02223,0.1651 0,0.155575 -0.06985,0.4826 -0.06985,0.327025 -0.06668,0.441325 0,0.05398 0.03493,0.05398 0.04762,0 0.117475,-0.06033 0.06985,-0.06033 0.1397,-0.130175 0.06985,-0.07303 0.127,-0.13335 0.06033,-0.06032 0.08255,-0.06032 0.04445,0 0.04445,0.10795 0,0.22225 -0.219075,0.428625 -0.3683,0.2159 -0.466725,0.2159 -0.0095,0 -0.01587,-0.0032 -0.12065,0 -0.17145,-0.07937 -0.04762,-0.07937 -0.06032,-0.200025 -0.0635,0.117475 -0.174625,0.2032 -0.111125,0.08255 -0.254,0.08255 -0.250825,0 -0.38735,-0.09525 -0.13335,-0.09525 -0.13335,-0.282575 0,-0.08255 0.02223,-0.1524 0.0254,-0.06985 0.07937,-0.17145 l 0.09207,-0.78105 q 0.09843,-0.0762 0.282575,-0.0762 0.14605,0 0.1651,0.1905 0.01587,0.155575 -0.01588,0.2794 -0.02857,0.12065 -0.07937,0.307975 -0.0508,0.18415 -0.0508,0.327025 0,0.1143 0.142875,0.1143 0.155575,0 0.269875,-0.27305 0.0889,-0.20955 0.12065,-0.466725 -0.0032,-0.0254 -0.0063,-0.0635 0,-0.04127 -0.0032,-0.07937 0,-0.0381 0,-0.0762 z"
         id="path15" />
      <path
         style="font-family:'Leckerli One';-inkscape-font-specification:'Leckerli One';fill:#9955ff"
         d="m 76.62671,75.147331 v 0.18415 h -1.397 v -0.18415 z"
         id="path16" />
    </g>
  </g>
</svg>
